<?xml version="1.0" encoding="utf-8"?>
<!-- Generator: Adobe Illustrator 19.0.0, SVG Export Plug-In . SVG Version: 6.00 Build 0)  -->
<svg version="1.1" id="Layer_1" xmlns="http://www.w3.org/2000/svg" xmlns:xlink="http://www.w3.org/1999/xlink" x="0px" y="0px"
	 viewBox="0 0 1000 1000" style="enable-background:new 0 0 1000 1000;" xml:space="preserve">
<style type="text/css">
	.st0{fill:#B4A192;stroke:#B4A192;stroke-width:0.5;stroke-miterlimit:10;}
	.st1{fill:#B4A192;stroke:#B4A192;stroke-miterlimit:10;}
	.st2{fill:#B4A192;stroke:#B4A192;stroke-width:0.25;stroke-miterlimit:10;}
</style>
<path id="XMLID_1_" class="st0" d="M89,527.1c0,0,9.8-26.3,16.4-38c0,0,7.1-13.4,4-35.3c0,0-1-12.1-5.9-20.5
	c0,0,84.5-2.1,132.1-12.8c0,0,148.4-27,203.1-26.4c0,0,104.1-3,179.3,27.3c0,0,41.4,15.5,60.9,24.8c0,0-158.3,24.8-169.1,23.9
	c0,0-36.4,2.8-85-2.1c0,0-33-2.1-63.6-22.5c0,0-17.8-12.1-29-27.9c0,0,6.8,26.4,47.1,50.1c0,0,26.3,14.9,75.1,19.3
	c0,0,26.1,5.5,108.9-2.8c0,0,30.8-5.3,154.8-22.6c0,0,40.6-5.6,65.3-1c0,0,25.9,2.2,53.5,11.2c0,0,67.5,23.6,103,57
	c0,0-37.1-46.2-106.4-71c-33.5-12-69.2-15-104.3-18.9c-11.1-1.2-22.2-5-32.7-8.6c-6.9-2.4-13.6-5.1-20.3-8
	c-20.3-8.9-40.1-19.5-61.3-27.2c-26-9.5-53-17.1-80.4-20.8c0,0-40.1-10-134.8-2.9c0,0-86,8-189.3,34.1c0,0-46.5,13.6-130.6,17.6
	c0,0,18.7,19.7,19.1,45.9c0,0,1.3,15.4-9,42.2C89.8,511.3,87.3,519.8,89,527.1z"/>
<path id="XMLID_5_" class="st0" d="M591.8,378.5c0,0,26.3-48,77.3-36.8l-20.6,11.5l27.4-9.4l-3.8,15.4l7.6-14l13.9,27.9l-8.8-26.3
	c0,0,50.5,18.4,39.6,82c0,0,20.1-41.1-27.1-80.1l5.3,0.5l-17-9.2l26.8-13.8l-29.5,10.5l5.8-16.8l-8.8,14.5L667.3,309l8.3,27
	l-16.8-4.3l9.3,5.5C668,337.3,615,326.5,591.8,378.5z"/>
<path id="XMLID_4_" class="st1" d="M224.5,509.5c0,0-11.3,0-11.9,0c-9.2,0-18.3,0-27.5,0c-10,0-20.1,0-30.1,0c-6.6,0-13.2,0-19.8,0
	c-3.2,0-6.2,0.2-8.6,2.8c-4.4,4.8-3,12.8-3,18.8c0,9.9,0,19.8,0,29.6c0,9.1,0,18.1,0,27.2c0,2.4,0.1,4.7,0,7.1
	c-0.1,5.7,2.5,11.8,6.1,16.1c5.1,6.1,13.3,10.1,21.3,10.4c2.7,0.1,5.4,0,8.1,0c10,0,20,0,29.9,0c9.6,0,19.2,0,28.8,0
	c0.3,0,6.8,0,6.8,0c0,0,0-20.5,0-20.5l-73.7-0.2c0,0-6.3-0.2-7.3-6.8v-64l81-0.4C224.5,529.6,224.5,509.9,224.5,509.5z"/>
<polygon id="XMLID_3_" class="st1" points="151.5,555.5 215.5,555.5 215.5,575 151.5,575.4 "/>
<path id="XMLID_10_" class="st1" d="M344.5,530v-20.5c0,0-76.4,0-76.5,0c-7.2,0-14.4,4.1-18.8,9.6c-4.1,5.1-6.7,11.9-6.7,18.5
	c0,3.6,0,7.3,0,10.9c0,10.6,0,21.2,0,31.8c0,10.8-1.1,21.4,6,30.3c5,6.3,12.6,9.3,20.4,9.9H344l0.5-19.8l-74.5-0.1
	c0,0-6.4,0.3-7.3-7.1s0.1-57.4,0.1-57.4s0.6-6.9,8.3-6.6L344.5,530z"/>
<path id="XMLID_12_" class="st1" d="M383.5,509.5h-21c0,4.2,0,8.4,0,12.6c0,9.7,0,19.4,0,29.1c0,10.9,0,21.8,0,32.8
	c0,7.9,0,15.8,0,23.6c0,3.8,0.1,7.5,2.7,10.5c3.8,4.4,10.3,3.4,15.6,3.4c3.9,0,7.9,0,11.8,0c11,0,21.9,0,32.9,0
	c10.1,0,20.3,0,30.4,0c0.6,0,10.6,0,10.6,0v-20h-83V509.5z"/>
<path id="XMLID_11_" class="st1" d="M502,509.5h-21.5v112H502C502,621.5,502.2,509.3,502,509.5z"/>
<path id="XMLID_13_" class="st1" d="M553.5,573v21.5c7.7,0,15.5,0,23.2,0c5.5,0,11,0,16.5,0c7.4,0,14.3-0.4,21.1-3.3
	c4.3-1.8,8.3-4.3,11.7-7.5c4.7-4.4,7.9-10.1,9.6-16.2c2-7.2,2.2-15.6,1.6-23c-0.3-3.8-1-7.6-2.2-11.2c-3.4-10.1-11-17.8-21.1-21.3
	c-4-1.4-8.1-2.1-12.3-2.4c0,0-49.6,0-49.6,0c-7.8,0-16,4.5-20.7,10.7c-5.9,7.8-6.1,16.6-6.1,25.8c0,9.4,0,18.8,0,28.2
	c0,10.3,0.1,20.5,0.1,30.8c0,5.5,0.1,10.9,0.1,16.4c0,0,0,0.2,0,0.2h20V537c0,0-0.3-6.6,6.8-7.5c0,0,49.7,0,49.8,0
	c4.5,0,8.3,2.7,10.9,6.3c2.5,3.5,3.4,7.6,3.8,11.8c0.4,4.5,0.8,9.4-0.5,13.7c-2.2,7.1-9.6,11.9-16.9,12c-4.7,0.1-9.3-0.1-14-0.1
	c-10.1-0.1-20.2-0.1-30.3-0.2C554.8,573,553.5,573,553.5,573z"/>
<path id="XMLID_14_" class="st1" d="M752.5,529v-19.5H681c0,0-28.4,0-30.9,32.8c0,0-1.5,28.8,30.5,33c0,0,49.6-0.1,49.5,0
	s10.4-0.2,11.8,11.9c0,0,1.3,12.3-11.4,13.3h-80v21c5.8,0,11.6,0,17.5,0c11.7,0,23.3,0,35,0c5.3,0,10.6,0,16,0
	c4.9,0,10,0.5,14.9-0.3c15.3-2.3,26.9-15,28.5-30.2c0.6-5.9-0.8-12.5-3.2-17.9c-4.7-10.3-16.9-18.7-28.4-18.7H681
	c0,0-9.5,0.5-10.4-11.9s11.3-13.4,11.3-13.4L752.5,529z"/>
<path id="XMLID_16_" class="st1" d="M880.5,529.5v-20c-4.7,0-9.4,0-14,0c-10.4,0-20.8,0-31.2,0c-10.6,0-21.3,0-31.9,0
	c-3.4,0-6.8,0-10.2,0c-4.1,0-8.5-0.6-11.6,2.8c-3,3.2-3.1,7.2-3.1,11.3c0,4.8,0,9.6,0,14.4c0,11.9,0,23.7,0,35.6c0,4,0,8.1,0,12.1
	c0,7.5,0,14.6,3.6,21.4c2.8,5.2,7.2,9.4,12.5,11.8c7,3.2,14.4,2.7,21.9,2.7c5.7,0,11.5,0,17.2,0c11.9,0,23.8,0,35.7,0
	c0.5,0,10,0,10,0v-20H806c0,0-7.5-0.1-7.5-8.3v-63.8H880.5z"/>
<rect id="XMLID_15_" x="806.5" y="555.5" class="st1" width="64" height="19"/>
<path id="XMLID_19_" class="st2" d="M163.4,645.6h-7.3l-12.6,25.7h7.3l2.2-4.9h13.7l2.4,4.8h6.8L163.4,645.6z M155.4,660.9l4-8.5
	l4.4,8.5H155.4z"/>
<polygon id="XMLID_8_" class="st2" points="174.9,655 174.9,659.6 176.8,659.6 182.1,671.2 189,671.2 197.1,655 191,655 
	185.8,665.6 179.9,655.1 "/>
<path id="XMLID_7_" class="st2" d="M199,655v4.5h6.5v8.2c0,0,0.7,2.9,3.5,3.5h5v-4.4h-1.8c0,0-0.9,0-0.8-0.8v-6.4h7.2v-4.6L199,655z
	"/>
<path id="XMLID_20_" class="st2" d="M228.4,660.3v11.1h-5.8v-11.6c0,0,0.3-0.8-0.8-0.8h-1.2v-3.8h16.2c0,0,6-0.3,6,6
	c0,17.4,0,17.3,0,17.3h-5.8v-16.1c0,0,0.3-2.4-2.4-2.4h-6.2L228.4,660.3z"/>
<path id="XMLID_9_" class="st2" d="M251.8,671.4h-6.5l8.5-16.3c0,0,0.7-3.3-2.9-5.3h-3.1V646h5.3c0,0,4.8,1,6.4,7.1
	c0,0.2,9.2,18.2,9.2,18.2h-6.4l-4.6-10.2h-1.4L251.8,671.4z"/>
<path id="XMLID_21_" class="st2" d="M276.6,655.1h-6.5v12.1c0,0,0.4,4.2,4.2,4.2h5v-4.5h-1.6c0,0-0.9,0.2-0.9-0.9
	C276.6,664.7,276.6,655.1,276.6,655.1z"/>
<path id="XMLID_27_" class="st2" d="M301.4,666.8v-11.7h-16.2c0,0-4.7,3.2-4.7,8c0,0.2-0.6,6,4.7,8.2c0,0,18.1,0,18.1,0.1v-4.6
	H301.4z M295.5,666.8H289c0,0-2.6,0.5-2.6-3.7c0,0-0.1-3.4,2.5-3.4s6.5,0,6.5,0V666.8z"/>
<polygon id="XMLID_23_" class="st2" points="312.5,661.5 312.5,655 305.9,655 305.9,671.4 312.5,671.4 312.5,664.9 315.1,664.9 
	319.8,671.4 326.5,671.4 320.4,663.3 326.7,655.1 319.9,655.1 315.2,661.5 "/>
<path id="XMLID_24_" class="st2" d="M345.1,659V655h-14.3c0,0-3.2,1.6-3.2,4.5c0,0,0,2.7,1.8,3.3c0,0-1.9,1-1.9,3.9
	c0,0-0.1,4.2,2.5,4.6h15v-3.8h-11c0,0-1.5-1.4,0-2.7h11v-3.3H334c0,0-1.5-1.4,0-2.6L345.1,659z"/>
<polygon id="XMLID_22_" class="st2" points="340.5,644.6 334.6,644.6 334.6,653.6 339.2,653.6 "/>
<path id="XMLID_29_" class="st2" d="M365.2,655v5.2h-10.3c0,0-3.4,3.1,0,6.5h7.7c0,0,2.6,0.7,2.6,3.4v8.5h-5.8v-5.9
	c0,0-0.1-1.2-1.2-1.2h-6c0,0-4.6-2-4.6-8.2c0,0-0.5-8.1,5.2-8.1C358.6,655.1,365.2,655,365.2,655z"/>
<polygon id="XMLID_30_" class="st2" points="380.3,671.4 380.3,645.2 390.1,645.2 397.4,662.8 405,645.3 414.2,645.3 414.2,671.4 
	407.6,671.4 407.6,656.4 400.8,671.3 393.6,671.3 387.4,656.4 387.4,671.4 "/>
<path id="XMLID_28_" class="st2" d="M436.1,659V655h-14.3c0,0-3.2,1.6-3.2,4.5c0,0,0,2.7,1.8,3.3c0,0-1.9,1-1.9,3.9
	c0,0-0.1,4.2,2.5,4.6h15v-3.8h-11c0,0-1.5-1.4,0-2.7h11v-3.3H425c0,0-1.5-1.4,0-2.6L436.1,659z"/>
<path id="XMLID_31_" class="st2" d="M629.4,646h-7.3l-12.6,25.7h7.3l2.2-4.9h13.7l2.4,4.8h6.8L629.4,646z M621.5,661.2l4-8.5
	l4.4,8.5H621.5z"/>
<path id="XMLID_34_" class="st2" d="M667.6,655.4v4.5h6.5v8.2c0,0,0.7,2.9,3.5,3.5h5v-4.4h-1.8c0,0-0.9,0-0.8-0.8v-6.4h7.2v-4.6
	L667.6,655.4z"/>
<polygon id="XMLID_35_" class="st2" points="719.6,661.8 719.6,655.4 713,655.4 713,671.7 719.6,671.7 719.6,665.2 722.3,665.2 
	727,671.7 733.6,671.7 727.6,663.6 733.8,655.5 727.1,655.5 722.4,661.8 "/>
<path id="XMLID_36_" class="st2" d="M742.4,655.1h-6.5v12.1c0,0,0.4,4.2,4.2,4.2h5v-4.5h-1.6c0,0-0.9,0.2-0.9-0.9
	C742.4,664.7,742.4,655.1,742.4,655.1z"/>
<polygon id="XMLID_37_" class="st2" points="745.7,655.4 745.7,660 747.5,660 752.9,671.6 759.7,671.6 767.9,655.4 761.7,655.4 
	756.5,665.9 750.7,655.4 "/>
<path id="XMLID_38_" class="st2" d="M777.5,660.6v11.1h-5.8v-11.6c0,0,0.3-0.8-0.8-0.8h-1.2v-3.8h16.2c0,0,6-0.3,6,6
	c0,17.4,0,17.3,0,17.3H786v-16.1c0,0,0.3-2.4-2.4-2.4h-6.2L777.5,660.6z"/>
<polygon id="XMLID_39_" class="st2" points="526.7,644.6 520.8,644.6 520.8,653.6 525.5,653.6 "/>
<polygon id="XMLID_40_" class="st2" points="784.6,645 778.7,645 778.7,653.9 783.3,653.9 "/>
<path id="XMLID_41_" class="st2" d="M794.5,655v4.5h6.5v8.2c0,0,0.7,2.9,3.5,3.5h5v-4.4h-1.8c0,0-0.9,0-0.8-0.8v-6.4h7.2v-4.6
	L794.5,655z"/>
<polygon id="XMLID_42_" class="st2" points="847.5,655.4 847.5,660 849.4,660 854.7,671.6 861.6,671.6 869.8,655.4 863.6,655.4 
	858.4,665.9 852.5,655.4 "/>
<path id="XMLID_43_" class="st2" d="M533,666.8v-11.7h-16.2c0,0-4.7,3.2-4.7,8c0,0.2-0.6,6,4.7,8.2c0,0,18.1,0,18.1,0.1v-4.6H533z
	 M527.1,666.8h-6.5c0,0-2.6,0.5-2.6-3.7c0,0-0.1-3.4,2.5-3.4s6.5,0,6.5,0V666.8z"/>
<polygon id="XMLID_46_" class="st2" points="535.6,655 535.6,659.6 537.4,659.6 542.8,671.2 549.7,671.2 557.8,655 551.7,655 
	546.4,665.6 540.6,655.1 "/>
<path id="XMLID_47_" class="st2" d="M576,658.6v-3.9h-14.3c0,0-3.2,1.6-3.2,4.5c0,0,0,2.7,1.8,3.3c0,0-1.9,1-1.9,3.9
	c0,0-0.1,4.2,2.5,4.6h15v-3.8h-11c0,0-1.5-1.4,0-2.7h11v-3.3h-11.1c0,0-1.5-1.4,0-2.6L576,658.6z"/>
<path id="XMLID_48_" class="st2" d="M596.1,655v5.2h-10.3c0,0-3.4,3.1,0,6.5h7.7c0,0,2.6,0.7,2.6,3.4v8.5h-5.8v-5.9
	c0,0-0.1-1.2-1.2-1.2h-6c0,0-4.6-2-4.6-8.2c0,0-0.5-8.1,5.2-8.1C589.6,655.1,596.1,655,596.1,655z"/>
<path id="XMLID_50_" class="st2" d="M439.2,678.5V655h6.5v9.5c0,0,0.3,1.9,2,1.9h5.8V655h6.2v12h2v4.3h-16.3v7.2
	C445.5,678.5,439.1,678.6,439.2,678.5z"/>
<path id="XMLID_55_" class="st2" d="M482,656.7c1-0.7,0.9-1.9,0.9-1.9v-4c0-4.4-5.2-5.2-5.2-5.2h-8.5c-4.8,0.4-4.5,4.5-4.5,4.5v28.4
	h6.2c-0.1,0.1,0-7.2,0-7.2h9.8c4.5-0.5,4.9-4.2,4.9-4.2v-6.5C484.7,657.9,482,656.7,482,656.7z M479.7,665.2c0,0-0.4,1.6-1.6,1.6
	c-1.2,0-7.3-0.1-7.2,0v-15.5c0,0-0.1-1.4,1.4-1.4c1.5,0,3.7,0,3.7,0s1.4,0.2,1.4,1.4c0,1.2,0,3.8,0,3.8s-0.2,0.7-0.7,0.7
	c-0.5,0-2.8,0-2.8,0v4.4h4.4c0,0,1.4,0.2,1.4,1.4C479.7,662.5,479.7,665.2,479.7,665.2z"/>
<path id="XMLID_58_" class="st2" d="M505.7,655c0,0-7.4,0-11.6,0c-4.3,0-4.9,4.9-4.9,4.9v18.6h6.5v-7.3c0,0,6.7,0,10.1,0
	c3.4,0,3.5-3.5,3.5-3.5s0-6.8,0-9.3C509.2,656,505.7,655,505.7,655z M503.8,665.2c0,0-0.3,1.6-1.6,1.6c-1.2,0-6.6-0.1-6.6-0.1v-4.9
	c0,0,0.1-2.5,2.5-2.5c2.4,0,3.7,0,3.7,0s1.9,0.2,1.9,1.9S503.8,665.2,503.8,665.2z"/>
<path id="XMLID_61_" class="st2" d="M699.2,654.5c-5.5,0-9.9,3.9-9.9,8.7s4.5,8.7,9.9,8.7s9.9-3.9,9.9-8.7S704.7,654.5,699.2,654.5z
	 M699.1,667.5c-2.3,0-4.3-1.9-4.3-4.3s1.9-4.3,4.3-4.3s4.3,1.9,4.3,4.3S701.4,667.5,699.1,667.5z"/>
<path id="XMLID_51_" class="st2" d="M823.5,655.1H817v12.7c0,0,1.4,4.1,5.5,4.1h4.6c0,0,2.6,0.1,3.6-2.5c0,0,1.3,2.5,3.6,2.5h5.8
	c0,0,3.7,0,4.3-4.3V655h-5.8v10.5c0,0-1.7,2.8-5.2,0v-6.2h-4.6v6.2c0,0-2.8,2.9-5.2,0L823.5,655.1z"/>
<path id="XMLID_52_" class="st2" d="M641.8,655.4v4.5h1.9v5.3c0,0-0.7,6.9,6.5,6.9h8.5c0,0,5.9,0.4,5.9-6.8v-9.8h-6.2v9.7
	c0,0-3.2,5-8.3,0V659c0,0,0.6-3.7-3.7-3.7S641.8,655.4,641.8,655.4z"/>
</svg>
