<?xml version="1.0" encoding="utf-8"?>
<!-- Generator: Adobe Illustrator 19.0.0, SVG Export Plug-In . SVG Version: 6.00 Build 0)  -->
<svg version="1.1" id="Layer_1" xmlns="http://www.w3.org/2000/svg" xmlns:xlink="http://www.w3.org/1999/xlink" x="0px" y="0px"
	 viewBox="0 0 864 317" style="enable-background:new 0 0 864 317;" xml:space="preserve">
<style type="text/css">
	.st0{fill:#B4A192;stroke:#B4A192;stroke-width:0.5;stroke-miterlimit:10;}
	.st1{fill:#B4A192;stroke:#B4A192;stroke-miterlimit:10;}
</style>
<path id="XMLID_1_" class="st0" d="M12,220.1c0,0,9.8-26.3,16.4-38c0,0,7.1-13.4,4-35.3c0,0-1-12.1-5.9-20.5
	c0,0,84.5-2.1,132.1-12.8c0,0,148.4-27,203.1-26.4c0,0,104.1-3,179.3,27.3c0,0,41.4,15.5,60.9,24.8c0,0-158.3,24.8-169.1,23.9
	c0,0-36.4,2.8-85-2.1c0,0-33-2.1-63.6-22.5c0,0-17.8-12.1-29-27.9c0,0,6.8,26.4,47.1,50.1c0,0,26.3,14.9,75.1,19.3
	c0,0,26.1,5.5,108.9-2.8c0,0,30.8-5.3,154.8-22.6c0,0,40.6-5.6,65.3-1c0,0,25.9,2.2,53.5,11.2c0,0,67.5,23.6,103,57
	c0,0-37.1-46.2-106.4-71c-33.5-12-69.2-15-104.3-18.9c-11.1-1.2-22.2-5-32.7-8.6c-6.9-2.4-13.6-5.1-20.3-8
	c-20.3-8.9-40.1-19.5-61.3-27.2c-26-9.5-53-17.1-80.4-20.8c0,0-40.1-10-134.8-2.9c0,0-86,8-189.3,34.1c0,0-46.5,13.6-130.6,17.6
	c0,0,18.7,19.7,19.1,45.9c0,0,1.3,15.4-9,42.2C12.8,204.3,10.3,212.8,12,220.1z"/>
<path id="XMLID_5_" class="st0" d="M514.8,71.5c0,0,26.3-48,77.3-36.8l-20.6,11.5l27.4-9.4L595,52.3l7.6-14l13.9,27.9l-8.8-26.3
	c0,0,50.5,18.4,39.6,82c0,0,20.1-41.1-27.1-80.1l5.3,0.5l-17-9.2l26.8-13.8l-29.5,10.5l5.8-16.8l-8.8,14.5L590.3,2l8.3,27l-16.8-4.3
	l9.3,5.5C591,30.3,538,19.5,514.8,71.5z"/>
<path id="XMLID_4_" class="st1" d="M147.5,202.5c0,0-11.3,0-11.9,0c-9.2,0-18.3,0-27.5,0c-10,0-20.1,0-30.1,0c-6.6,0-13.2,0-19.8,0
	c-3.2,0-6.2,0.2-8.6,2.8c-4.4,4.8-3,12.8-3,18.8c0,9.9,0,19.8,0,29.6c0,9.1,0,18.1,0,27.2c0,2.4,0.1,4.7,0,7.1
	c-0.1,5.7,2.5,11.8,6.1,16.1c5.1,6.1,13.3,10.1,21.3,10.4c2.7,0.1,5.4,0,8.1,0c10,0,20,0,29.9,0c9.6,0,19.2,0,28.8,0
	c0.3,0,6.8,0,6.8,0c0,0,0-20.5,0-20.5l-73.7-0.2c0,0-6.3-0.2-7.3-6.8v-64l81-0.4C147.5,222.6,147.5,202.9,147.5,202.5z"/>
<polygon id="XMLID_3_" class="st1" points="74.5,248.5 138.5,248.5 138.5,268 74.5,268.4 "/>
<path id="XMLID_10_" class="st1" d="M267.5,223v-20.5c0,0-76.4,0-76.5,0c-7.2,0-14.4,4.1-18.8,9.6c-4.1,5.1-6.7,11.9-6.7,18.5
	c0,3.6,0,7.3,0,10.9c0,10.6,0,21.2,0,31.8c0,10.8-1.1,21.4,6,30.3c5,6.3,12.6,9.3,20.4,9.9H267l0.5-19.8l-74.5-0.1
	c0,0-6.4,0.3-7.3-7.1s0.1-57.4,0.1-57.4s0.6-6.9,8.3-6.6L267.5,223z"/>
<path id="XMLID_12_" class="st1" d="M306.5,202.5l-21,0c0,4.2,0,8.4,0,12.6c0,9.7,0,19.4,0,29.1c0,10.9,0,21.8,0,32.8
	c0,7.9,0,15.8,0,23.6c0,3.8,0.1,7.5,2.7,10.5c3.8,4.4,10.3,3.4,15.6,3.4c3.9,0,7.9,0,11.8,0c11,0,21.9,0,32.9,0
	c10.1,0,20.3,0,30.4,0c0.6,0,10.6,0,10.6,0v-20h-83V202.5z"/>
<path id="XMLID_11_" class="st1" d="M425,202.5h-21.5v112H425C425,314.5,425.2,202.3,425,202.5z"/>
<path id="XMLID_13_" class="st1" d="M476.5,266l0,21.5c7.7,0,15.5,0,23.2,0c5.5,0,11,0,16.5,0c7.4,0,14.3-0.4,21.1-3.3
	c4.3-1.8,8.3-4.3,11.7-7.5c4.7-4.4,7.9-10.1,9.6-16.2c2-7.2,2.2-15.6,1.6-23c-0.3-3.8-1-7.6-2.2-11.2c-3.4-10.1-11-17.8-21.1-21.3
	c-4-1.4-8.1-2.1-12.3-2.4c0,0-49.6,0-49.6,0c-7.8,0-16,4.5-20.7,10.7c-5.9,7.8-6.1,16.6-6.1,25.8c0,9.4,0,18.8,0,28.2
	c0,10.3,0.1,20.5,0.1,30.8c0,5.5,0.1,10.9,0.1,16.4c0,0,0,0.2,0,0.2h20V230c0,0-0.3-6.6,6.8-7.5c0,0,49.7,0,49.8,0
	c4.5,0,8.3,2.7,10.9,6.3c2.5,3.5,3.4,7.6,3.8,11.8c0.4,4.5,0.8,9.4-0.5,13.7c-2.2,7.1-9.6,11.9-16.9,12c-4.7,0.1-9.3-0.1-14-0.1
	c-10.1-0.1-20.2-0.1-30.3-0.2C477.8,266,476.5,266,476.5,266z"/>
<path id="XMLID_14_" class="st1" d="M675.5,222v-19.5H604c0,0-28.4,0-30.9,32.8c0,0-1.5,28.8,30.5,33c0,0,49.6-0.1,49.5,0
	s10.4-0.2,11.8,11.9c0,0,1.3,12.3-11.4,13.3h-80v21c5.8,0,11.6,0,17.5,0c11.7,0,23.3,0,35,0c5.3,0,10.6,0,16,0
	c4.9,0,10,0.5,14.9-0.3c15.3-2.3,26.9-15,28.5-30.2c0.6-5.9-0.8-12.5-3.2-17.9c-4.7-10.3-16.9-18.7-28.4-18.7H604
	c0,0-9.5,0.5-10.4-11.9s11.3-13.4,11.3-13.4L675.5,222z"/>
<path id="XMLID_16_" class="st1" d="M803.5,222.5v-20c-4.7,0-9.4,0-14,0c-10.4,0-20.8,0-31.2,0c-10.6,0-21.3,0-31.9,0
	c-3.4,0-6.8,0-10.2,0c-4.1,0-8.5-0.6-11.6,2.8c-3,3.2-3.1,7.2-3.1,11.3c0,4.8,0,9.6,0,14.4c0,11.9,0,23.7,0,35.6c0,4,0,8.1,0,12.1
	c0,7.5,0,14.6,3.6,21.4c2.8,5.2,7.2,9.4,12.5,11.8c7,3.2,14.4,2.7,21.9,2.7c5.7,0,11.5,0,17.2,0c11.9,0,23.8,0,35.7,0
	c0.5,0,10,0,10,0v-20H729c0,0-7.5-0.1-7.5-8.3v-63.8H803.5z"/>
<rect id="XMLID_15_" x="729.5" y="248.5" class="st1" width="64" height="19"/>
</svg>
