<?xml version="1.0" encoding="utf-8"?>
<!-- Generator: Adobe Illustrator 19.0.0, SVG Export Plug-In . SVG Version: 6.00 Build 0)  -->
<svg version="1.1" id="Layer_1" xmlns="http://www.w3.org/2000/svg" xmlns:xlink="http://www.w3.org/1999/xlink" x="0px" y="0px"
	 viewBox="0 0 891 397" style="enable-background:new 0 0 891 397;" xml:space="preserve">
<style type="text/css">
	.st0{fill:#B4A192;stroke:#B4A192;stroke-width:0.5;stroke-miterlimit:10;}
	.st1{fill:#B4A192;stroke:#B4A192;stroke-miterlimit:10;}
	.st2{fill:#B4A192;stroke:#B4A192;stroke-width:0.25;stroke-miterlimit:10;}
</style>
<path id="XMLID_1_" class="st0" d="M27,225.1c0,0,9.8-26.3,16.4-38c0,0,7.1-13.4,4-35.3c0,0-1-12.1-5.9-20.5
	c0,0,84.5-2.1,132.1-12.8c0,0,148.4-27,203.1-26.4c0,0,104.1-3,179.3,27.3c0,0,41.4,15.5,60.9,24.8c0,0-158.3,24.8-169.1,23.9
	c0,0-36.4,2.8-85-2.1c0,0-33-2.1-63.6-22.5c0,0-17.8-12.1-29-27.9c0,0,6.8,26.4,47.1,50.1c0,0,26.3,14.9,75.1,19.3
	c0,0,26.1,5.5,108.9-2.8c0,0,30.8-5.3,154.8-22.6c0,0,40.6-5.6,65.3-1c0,0,25.9,2.2,53.5,11.2c0,0,67.5,23.6,103,57
	c0,0-37.1-46.2-106.4-71c-33.5-12-69.2-15-104.3-18.9c-11.1-1.2-22.2-5-32.7-8.6c-6.9-2.4-13.6-5.1-20.3-8
	c-20.3-8.9-40.1-19.5-61.3-27.2c-26-9.5-53-17.1-80.4-20.8c0,0-40.1-10-134.8-2.9c0,0-86,8-189.3,34.1c0,0-46.5,13.6-130.6,17.6
	c0,0,18.7,19.7,19.1,45.9c0,0,1.3,15.4-9,42.2C27.8,209.3,25.3,217.8,27,225.1z"/>
<path id="XMLID_5_" class="st0" d="M529.8,76.5c0,0,26.3-48,77.3-36.8l-20.6,11.5l27.4-9.4L610,57.3l7.6-14l13.9,27.9l-8.8-26.3
	c0,0,50.5,18.4,39.6,82c0,0,20.1-41.1-27.1-80.1l5.3,0.5l-17-9.2l26.8-13.8l-29.5,10.5l5.8-16.8l-8.8,14.5L605.3,7l8.3,27l-16.8-4.3
	l9.3,5.5C606,35.3,553,24.5,529.8,76.5z"/>
<path id="XMLID_4_" class="st1" d="M162.5,207.5c0,0-11.3,0-11.9,0c-9.2,0-18.3,0-27.5,0c-10,0-20.1,0-30.1,0c-6.6,0-13.2,0-19.8,0
	c-3.2,0-6.2,0.2-8.6,2.8c-4.4,4.8-3,12.8-3,18.8c0,9.9,0,19.8,0,29.6c0,9.1,0,18.1,0,27.2c0,2.4,0.1,4.7,0,7.1
	c-0.1,5.7,2.5,11.8,6.1,16.1c5.1,6.1,13.3,10.1,21.3,10.4c2.7,0.1,5.4,0,8.1,0c10,0,20,0,29.9,0c9.6,0,19.2,0,28.8,0
	c0.3,0,6.8,0,6.8,0c0,0,0-20.5,0-20.5l-73.7-0.2c0,0-6.3-0.2-7.3-6.8v-64l81-0.4C162.5,227.6,162.5,207.9,162.5,207.5z"/>
<polygon id="XMLID_3_" class="st1" points="89.5,253.5 153.5,253.5 153.5,273 89.5,273.4 "/>
<path id="XMLID_10_" class="st1" d="M282.5,228v-20.5c0,0-76.4,0-76.5,0c-7.2,0-14.4,4.1-18.8,9.6c-4.1,5.1-6.7,11.9-6.7,18.5
	c0,3.6,0,7.3,0,10.9c0,10.6,0,21.2,0,31.8c0,10.8-1.1,21.4,6,30.3c5,6.3,12.6,9.3,20.4,9.9H282l0.5-19.8l-74.5-0.1
	c0,0-6.4,0.3-7.3-7.1s0.1-57.4,0.1-57.4s0.6-6.9,8.3-6.6L282.5,228z"/>
<path id="XMLID_12_" class="st1" d="M321.5,207.5l-21,0c0,4.2,0,8.4,0,12.6c0,9.7,0,19.4,0,29.1c0,10.9,0,21.8,0,32.8
	c0,7.9,0,15.8,0,23.6c0,3.8,0.1,7.5,2.7,10.5c3.8,4.4,10.3,3.4,15.6,3.4c3.9,0,7.9,0,11.8,0c11,0,21.9,0,32.9,0
	c10.1,0,20.3,0,30.4,0c0.6,0,10.6,0,10.6,0v-20h-83V207.5z"/>
<path id="XMLID_11_" class="st1" d="M440,207.5h-21.5v112H440C440,319.5,440.2,207.3,440,207.5z"/>
<path id="XMLID_13_" class="st1" d="M491.5,271l0,21.5c7.7,0,15.5,0,23.2,0c5.5,0,11,0,16.5,0c7.4,0,14.3-0.4,21.1-3.3
	c4.3-1.8,8.3-4.3,11.7-7.5c4.7-4.4,7.9-10.1,9.6-16.2c2-7.2,2.2-15.6,1.6-23c-0.3-3.8-1-7.6-2.2-11.2c-3.4-10.1-11-17.8-21.1-21.3
	c-4-1.4-8.1-2.1-12.3-2.4c0,0-49.6,0-49.6,0c-7.8,0-16,4.5-20.7,10.7c-5.9,7.8-6.1,16.6-6.1,25.8c0,9.4,0,18.8,0,28.2
	c0,10.3,0.1,20.5,0.1,30.8c0,5.5,0.1,10.9,0.1,16.4c0,0,0,0.2,0,0.2h20V235c0,0-0.3-6.6,6.8-7.5c0,0,49.7,0,49.8,0
	c4.5,0,8.3,2.7,10.9,6.3c2.5,3.5,3.4,7.6,3.8,11.8c0.4,4.5,0.8,9.4-0.5,13.7c-2.2,7.1-9.6,11.9-16.9,12c-4.7,0.1-9.3-0.1-14-0.1
	c-10.1-0.1-20.2-0.1-30.3-0.2C492.8,271,491.5,271,491.5,271z"/>
<path id="XMLID_14_" class="st1" d="M690.5,227v-19.5H619c0,0-28.4,0-30.9,32.8c0,0-1.5,28.8,30.5,33c0,0,49.6-0.1,49.5,0
	s10.4-0.2,11.8,11.9c0,0,1.3,12.3-11.4,13.3h-80v21c5.8,0,11.6,0,17.5,0c11.7,0,23.3,0,35,0c5.3,0,10.6,0,16,0
	c4.9,0,10,0.5,14.9-0.3c15.3-2.3,26.9-15,28.5-30.2c0.6-5.9-0.8-12.5-3.2-17.9c-4.7-10.3-16.9-18.7-28.4-18.7H619
	c0,0-9.5,0.5-10.4-11.9s11.3-13.4,11.3-13.4L690.5,227z"/>
<path id="XMLID_16_" class="st1" d="M818.5,227.5v-20c-4.7,0-9.4,0-14,0c-10.4,0-20.8,0-31.2,0c-10.6,0-21.3,0-31.9,0
	c-3.4,0-6.8,0-10.2,0c-4.1,0-8.5-0.6-11.6,2.8c-3,3.2-3.1,7.2-3.1,11.3c0,4.8,0,9.6,0,14.4c0,11.9,0,23.7,0,35.6c0,4,0,8.1,0,12.1
	c0,7.5,0,14.6,3.6,21.4c2.8,5.2,7.2,9.4,12.5,11.8c7,3.2,14.4,2.7,21.9,2.7c5.7,0,11.5,0,17.2,0c11.9,0,23.8,0,35.7,0
	c0.5,0,10,0,10,0v-20H744c0,0-7.5-0.1-7.5-8.3v-63.8H818.5z"/>
<rect id="XMLID_15_" x="744.5" y="253.5" class="st1" width="64" height="19"/>
<path id="XMLID_19_" class="st2" d="M97.4,343.6h-7.3l-12.6,25.7h7.3l2.2-4.9h13.7l2.4,4.8h6.8L97.4,343.6z M89.4,358.9l4-8.5
	l4.4,8.5H89.4z"/>
<polygon id="XMLID_8_" class="st2" points="108.9,353 108.9,357.6 110.8,357.6 116.1,369.2 123,369.2 131.1,353 125,353 
	119.8,363.6 113.9,353.1 "/>
<path id="XMLID_7_" class="st2" d="M133,353v4.5h6.5v8.2c0,0,0.7,2.9,3.5,3.5h5v-4.4h-1.8c0,0-0.9,0-0.8-0.8v-6.4h7.2v-4.6L133,353z
	"/>
<path id="XMLID_20_" class="st2" d="M162.4,358.3v11.1h-5.8v-11.6c0,0,0.3-0.8-0.8-0.8h-1.2v-3.8h16.2c0,0,6-0.3,6,6
	c0,17.4,0,17.3,0,17.3h-5.8v-16.1c0,0,0.3-2.4-2.4-2.4h-6.2L162.4,358.3z"/>
<path id="XMLID_9_" class="st2" d="M185.8,369.4h-6.5l8.5-16.3c0,0,0.7-3.3-2.9-5.3h-3.1V344h5.3c0,0,4.8,1,6.4,7.1
	c0,0.2,9.2,18.2,9.2,18.2h-6.4l-4.6-10.2h-1.4L185.8,369.4z"/>
<path id="XMLID_21_" class="st2" d="M210.6,353.1h-6.5v12.1c0,0,0.4,4.2,4.2,4.2h5v-4.5h-1.6c0,0-0.9,0.2-0.9-0.9
	S210.6,353.1,210.6,353.1z"/>
<path id="XMLID_27_" class="st2" d="M235.4,364.8v-11.7h-16.2c0,0-4.7,3.2-4.7,8c0,0.2-0.6,6,4.7,8.2c0,0,18.1,0,18.1,0.1v-4.6
	H235.4z M229.5,364.8H223c0,0-2.6,0.5-2.6-3.7c0,0-0.1-3.4,2.5-3.4s6.5,0,6.5,0V364.8z"/>
<polygon id="XMLID_23_" class="st2" points="246.5,359.5 246.5,353 239.9,353 239.9,369.4 246.5,369.4 246.5,362.9 249.1,362.9 
	253.8,369.4 260.5,369.4 254.4,361.3 260.7,353.1 253.9,353.1 249.2,359.5 "/>
<path id="XMLID_24_" class="st2" d="M279.1,357V353h-14.3c0,0-3.2,1.6-3.2,4.5c0,0,0,2.7,1.8,3.3c0,0-1.9,1-1.9,3.9
	c0,0-0.1,4.2,2.5,4.6h15v-3.8h-11c0,0-1.5-1.4,0-2.7h11v-3.3H268c0,0-1.5-1.4,0-2.6L279.1,357z"/>
<polygon id="XMLID_22_" class="st2" points="274.5,342.6 268.6,342.6 268.6,351.6 273.2,351.6 "/>
<path id="XMLID_29_" class="st2" d="M299.2,353v5.2h-10.3c0,0-3.4,3.1,0,6.5h7.7c0,0,2.6,0.7,2.6,3.4v8.5h-5.8v-5.9
	c0,0-0.1-1.2-1.2-1.2h-6c0,0-4.6-2-4.6-8.2c0,0-0.5-8.1,5.2-8.1C292.6,353.1,299.2,353,299.2,353z"/>
<polygon id="XMLID_30_" class="st2" points="314.3,369.4 314.3,343.2 324.1,343.2 331.4,360.8 339,343.3 348.2,343.3 348.2,369.4 
	341.6,369.4 341.6,354.4 334.8,369.3 327.6,369.3 321.4,354.4 321.4,369.4 "/>
<path id="XMLID_28_" class="st2" d="M370.1,357V353h-14.3c0,0-3.2,1.6-3.2,4.5c0,0,0,2.7,1.8,3.3c0,0-1.9,1-1.9,3.9
	c0,0-0.1,4.2,2.5,4.6h15v-3.8h-11c0,0-1.5-1.4,0-2.7h11v-3.3H359c0,0-1.5-1.4,0-2.6L370.1,357z"/>
<path id="XMLID_31_" class="st2" d="M563.4,344h-7.3l-12.6,25.7h7.3l2.2-4.9h13.7l2.4,4.8h6.8L563.4,344z M555.5,359.2l4-8.5
	l4.4,8.5H555.5z"/>
<path id="XMLID_34_" class="st2" d="M601.6,353.4v4.4h6.4v8c0,0,0.6,2.8,3.4,3.4h4.8v-4.3h-1.8c0,0-0.9,0-0.8-0.8v-6.2h7v-4.5
	L601.6,353.4z"/>
<polygon id="XMLID_35_" class="st2" points="653.4,359.6 653.4,353.4 647,353.4 647,369.2 653.4,369.2 653.4,362.9 656,362.9 
	660.6,369.2 667,369.2 661.1,361.4 667.2,353.5 660.7,353.5 656.1,359.6 "/>
<path id="XMLID_36_" class="st2" d="M676.4,353.1h-6.5v12.1c0,0,0.4,4.2,4.2,4.2h5v-4.5h-1.6c0,0-0.9,0.2-0.9-0.9
	S676.4,353.1,676.4,353.1z"/>
<polygon id="XMLID_37_" class="st2" points="679.7,353.4 679.7,358 681.5,358 686.9,369.6 693.7,369.6 701.9,353.4 695.7,353.4 
	690.5,363.9 684.7,353.4 "/>
<path id="XMLID_38_" class="st2" d="M711.3,358.5v10.8h-5.7v-11.3c0,0,0.3-0.8-0.8-0.8h-1.2v-3.7h15.8c0,0,5.9-0.3,5.9,5.9
	c0,17,0,16.9,0,16.9h-5.7v-15.7c0,0,0.3-2.3-2.3-2.3h-6L711.3,358.5z"/>
<polygon id="XMLID_39_" class="st2" points="460.7,342.6 454.8,342.6 454.8,351.6 459.5,351.6 "/>
<polygon id="XMLID_40_" class="st2" points="718.6,343 712.7,343 712.7,351.9 717.3,351.9 "/>
<path id="XMLID_41_" class="st2" d="M728.5,354v4.3h6.2v7.8c0,0,0.6,2.8,3.4,3.4h4.7v-4.2h-1.7c0,0-0.9,0-0.7-0.7v-6h6.8v-4.3
	L728.5,354z"/>
<polygon id="XMLID_42_" class="st2" points="779.3,353.9 779.3,358.3 781.2,358.3 786.3,369.5 792.9,369.5 800.8,353.9 794.8,353.9 
	789.8,364 784.2,353.9 "/>
<path id="XMLID_43_" class="st2" d="M467,364.8v-11.7h-16.2c0,0-4.7,3.2-4.7,8c0,0.2-0.6,6,4.7,8.2c0,0,18.1,0,18.1,0.1v-4.6H467z
	 M461.1,364.8h-6.5c0,0-2.6,0.5-2.6-3.7c0,0-0.1-3.4,2.5-3.4s6.5,0,6.5,0V364.8z"/>
<polygon id="XMLID_46_" class="st2" points="469.6,353 469.6,357.6 471.4,357.6 476.8,369.2 483.7,369.2 491.8,353 485.7,353 
	480.4,363.6 474.6,353.1 "/>
<path id="XMLID_47_" class="st2" d="M510,356.6v-3.9h-14.3c0,0-3.2,1.6-3.2,4.5c0,0,0,2.7,1.8,3.3c0,0-1.9,1-1.9,3.9
	c0,0-0.1,4.2,2.5,4.6h15v-3.8h-11c0,0-1.5-1.4,0-2.7h11v-3.3h-11.1c0,0-1.5-1.4,0-2.6L510,356.6z"/>
<path id="XMLID_48_" class="st2" d="M530.1,353v5.2h-10.3c0,0-3.4,3.1,0,6.5h7.7c0,0,2.6,0.7,2.6,3.4v8.5h-5.8v-5.9
	c0,0-0.1-1.2-1.2-1.2h-6c0,0-4.6-2-4.6-8.2c0,0-0.5-8.1,5.2-8.1C523.6,353.1,530.1,353,530.1,353z"/>
<path id="XMLID_50_" class="st2" d="M373.2,376.5V353h6.5v9.5c0,0,0.3,1.9,2,1.9h5.8V353h6.2v12h2v4.3h-16.3v7.2
	C379.5,376.5,373.1,376.6,373.2,376.5z"/>
<path id="XMLID_55_" class="st2" d="M416,354.7c1-0.7,0.9-1.9,0.9-1.9v-4c0-4.4-5.2-5.2-5.2-5.2h-8.5c-4.8,0.4-4.5,4.5-4.5,4.5v28.4
	h6.2c-0.1,0.1,0-7.2,0-7.2h9.8c4.5-0.5,4.9-4.2,4.9-4.2v-6.5C418.7,355.9,416,354.7,416,354.7z M413.7,363.2c0,0-0.4,1.6-1.6,1.6
	c-1.2,0-7.3-0.1-7.2,0v-15.5c0,0-0.1-1.4,1.4-1.4c1.5,0,3.7,0,3.7,0s1.4,0.2,1.4,1.4c0,1.2,0,3.8,0,3.8s-0.2,0.7-0.7,0.7
	c-0.5,0-2.8,0-2.8,0v4.4h4.4c0,0,1.4,0.2,1.4,1.4C413.7,360.5,413.7,363.2,413.7,363.2z"/>
<path id="XMLID_58_" class="st2" d="M439.7,353c0,0-7.4,0-11.6,0c-4.3,0-4.9,4.9-4.9,4.9v18.6h6.5v-7.3c0,0,6.7,0,10.1,0
	c3.4,0,3.5-3.5,3.5-3.5s0-6.8,0-9.3S439.7,353,439.7,353z M437.8,363.2c0,0-0.3,1.6-1.6,1.6c-1.2,0-6.6-0.1-6.6-0.1v-4.9
	c0,0,0.1-2.5,2.5-2.5c2.4,0,3.7,0,3.7,0s1.9,0.2,1.9,1.9C437.8,361,437.8,363.2,437.8,363.2z"/>
<path id="XMLID_61_" class="st2" d="M633.8,352.5c-5.3,0-9.6,3.8-9.6,8.4c0,4.6,4.3,8.4,9.6,8.4c5.3,0,9.6-3.8,9.6-8.4
	C643.4,356.3,639.1,352.5,633.8,352.5z M633.7,365c-2.3,0-4.1-1.8-4.1-4.1c0-2.3,1.8-4.1,4.1-4.1c2.3,0,4.1,1.8,4.1,4.1
	C637.8,363.2,636,365,633.7,365z"/>
<path id="XMLID_51_" class="st2" d="M757,354.1h-5.8v11.4c0,0,1.3,3.7,5,3.7h4.1c0,0,2.3,0.1,3.2-2.2c0,0,1.1,2.3,3.2,2.3h5.2
	c0,0,3.4,0,3.8-3.8V354h-5.2v9.4c0,0-1.5,2.5-4.7,0v-5.6h-4.1v5.6c0,0-2.5,2.6-4.7,0L757,354.1z"/>
<path id="XMLID_52_" class="st2" d="M575.8,353.4v4.3h1.8v5c0,0-0.7,6.6,6.3,6.6h8.2c0,0,5.6,0.4,5.6-6.6v-9.4h-5.9v9.3
	c0,0-3.1,4.8-7.9,0v-5.9c0,0,0.6-3.5-3.5-3.5C576.2,353.4,575.8,353.4,575.8,353.4z"/>
</svg>
